<mxfile>
  <diagram name="System Architecture">
    <mxGraphModel>
      <root>
        <mxCell id="0" />
        <mxCell id="1" parent="0" />
        <mxCell id="2" value="API" style="shape=ellipse;" vertex="1" parent="1">
          <mxGeometry x="100" y="100" width="80" height="40" as="geometry" />
        </mxCell>
        <mxCell id="3" value="Database" style="shape=rectangle;" vertex="1" parent="1">
          <mxGeometry x="300" y="100" width="100" height="40" as="geometry" />
        </mxCell>
        <mxCell id="4" edge="1" parent="1" source="2" target="3">
          <mxGeometry relative="1" as="geometry" />
        </mxCell>
      </root>
    </mxGraphModel>
  </diagram>
</mxfile>